<?xml version="1.0" encoding="UTF-8" standalone="no"?>
<!DOCTYPE svg PUBLIC "-//W3C//DTD SVG 1.1//EN" "http://www.w3.org/Graphics/SVG/1.1/DTD/svg11.dtd">
<svg width="100%" height="100%" viewBox="0 0 16 16" version="1.1" xmlns="http://www.w3.org/2000/svg" xmlns:xlink="http://www.w3.org/1999/xlink" xml:space="preserve" xmlns:serif="http://www.serif.com/" style="fill-rule:evenodd;clip-rule:evenodd;stroke-linejoin:round;stroke-miterlimit:2;">
    <rect id="Artboard1" x="0" y="0" width="16" height="16" style="fill:none;"/>
    <clipPath id="_clip1">
        <rect id="Artboard11" serif:id="Artboard1" x="0" y="0" width="16" height="16"/>
    </clipPath>
    <g clip-path="url(#_clip1)">
        <g transform="matrix(1.77218,0,0,1.87497,-3.47319,-5.42398)">
            <g transform="matrix(222.56,0,0,296.205,-220.319,-3248.84)">
                <g transform="matrix(1.55635,0,0,1,-0.556347,0)">
                    <g transform="matrix(0.0289832,0,0,0.0289832,1.00493,11)">
                    </g>
                    <text x="1px" y="11px" style="font-family:'OctoberCompressedDL-Light', 'October Compressed Devanagari';font-weight:300;font-stretch:ultra-condensed;font-size:0.029px;">j</text>
                </g>
            </g>
            <g transform="matrix(194.88,0,0,264.974,-191.202,-2907.64)">
                <g transform="matrix(1.55635,0,0,1,-0.556347,0)">
                    <g transform="matrix(0.0289832,0,0,0.0289832,1.01032,11)">
                    </g>
                    <text x="1px" y="11px" style="font-family:'OctoberCompressedDL-Light', 'October Compressed Devanagari';font-weight:300;font-stretch:ultra-condensed;font-size:0.029px;">e</text>
                </g>
            </g>
            <g transform="matrix(181.182,0,0,264.974,-174.59,-2907.64)">
                <g transform="matrix(1.55635,0,0,1,-0.556347,0)">
                    <g transform="matrix(0.0289832,0,0,0.0289832,1.01707,11)">
                    </g>
                    <text x="1px" y="11px" style="font-family:'OctoberCompressedDL-Light', 'October Compressed Devanagari';font-weight:300;font-stretch:ultra-condensed;font-size:0.029px;">m</text>
                </g>
            </g>
            <g transform="matrix(194.88,2.34757e-14,-3.29893e-14,264.974,-191.202,-2903.34)">
                <g transform="matrix(1.55635,0,0,1,-0.556347,0)">
                    <g transform="matrix(0.0289832,0,0,0.0289832,1.01032,11)">
                    </g>
                    <text x="1px" y="11px" style="font-family:'OctoberCompressedDL-Light', 'October Compressed Devanagari';font-weight:300;font-stretch:ultra-condensed;font-size:0.029px;">e</text>
                </g>
            </g>
            <g transform="matrix(335.422,2.34757e-14,-5.67802e-14,264.974,-328.906,-2903.34)">
                <g transform="matrix(1.55635,0,0,1,-0.556347,0)">
                    <g transform="matrix(0.0289832,0,0,0.0289832,1.0093,11)">
                    </g>
                    <text x="1px" y="11px" style="font-family:'OctoberCompressedDL-Light', 'October Compressed Devanagari';font-weight:300;font-stretch:ultra-condensed;font-size:0.029px;">s</text>
                </g>
            </g>
        </g>
    </g>
</svg>
