<?xml version="1.0" encoding="UTF-8" standalone="no"?>
<!DOCTYPE svg PUBLIC "-//W3C//DTD SVG 1.1//EN" "http://www.w3.org/Graphics/SVG/1.1/DTD/svg11.dtd">
<svg width="100%" height="100%" viewBox="0 0 16 16" version="1.1" xmlns="http://www.w3.org/2000/svg" xmlns:xlink="http://www.w3.org/1999/xlink" xml:space="preserve" xmlns:serif="http://www.serif.com/" style="fill-rule:evenodd;clip-rule:evenodd;stroke-linejoin:round;stroke-miterlimit:2;">
    <rect id="Artboard1" x="0" y="0" width="16" height="16" style="fill:none;"/>
    <clipPath id="_clip1">
        <rect id="Artboard11" serif:id="Artboard1" x="0" y="0" width="16" height="16"/>
    </clipPath>
    <g clip-path="url(#_clip1)">
        <g transform="matrix(553.125,4.40157e-14,-9.36329e-14,496.811,-544.061,-5449.04)">
            <g transform="matrix(1.55635,0,0,1,-0.556347,0)">
                <g transform="matrix(0.0289832,0,0,0.0289832,1.00901,11)">
                </g>
                <text x="1px" y="11px" style="font-family:'OctoberCompressedDL-ExtraLight', 'October Compressed Devanagari';font-weight:200;font-stretch:ultra-condensed;font-size:0.029px;">s</text>
            </g>
        </g>
        <g transform="matrix(275.992,0,0,498.628,-266.69,-5477.07)">
            <g transform="matrix(1.55635,0,0,1,-0.556347,0)">
                <g transform="matrix(0.0289832,0,0,0.0289832,1.01707,11)">
                </g>
                <text x="1px" y="11px" style="font-family:'OctoberCompressedDL-Light', 'October Compressed Devanagari';font-weight:300;font-stretch:ultra-condensed;font-size:0.029px;">m</text>
            </g>
        </g>
        <g transform="matrix(345.361,0,0,496.819,-341.094,-5457.18)">
            <g transform="matrix(1.55635,0,0,1,-0.556347,0)">
                <g transform="matrix(0.0289832,0,0,0.0289832,1.01032,11)">
                </g>
                <text x="1px" y="11px" style="font-family:'OctoberCompressedDL-Light', 'October Compressed Devanagari';font-weight:300;font-stretch:ultra-condensed;font-size:0.029px;fill:rgb(33,138,255);">e</text>
            </g>
        </g>
        <g transform="matrix(345.361,0,0,496.819,-341.094,-5449.12)">
            <g transform="matrix(1.55635,0,0,1,-0.556347,0)">
                <g transform="matrix(0.0289832,0,0,0.0289832,1.01032,11)">
                </g>
                <text x="1px" y="11px" style="font-family:'OctoberCompressedDL-Light', 'October Compressed Devanagari';font-weight:300;font-stretch:ultra-condensed;font-size:0.029px;fill:rgb(33,138,255);">e</text>
            </g>
        </g>
        <g transform="matrix(351.89,0,0,724.467,-352.271,-7953.28)">
            <g transform="matrix(1.55635,0,0,1,-0.556347,0)">
                <g transform="matrix(0.0289832,0,0,0.0289832,1.00974,11)">
                </g>
                <text x="1px" y="11px" style="font-family:'OctoberCompressedDL-Light', 'October Compressed Devanagari';font-weight:300;font-stretch:ultra-condensed;font-size:0.029px;">J</text>
            </g>
        </g>
    </g>
</svg>
